<svg width="163" height="40" viewBox="0 0 163 40" fill="none" xmlns="http://www.w3.org/2000/svg">
<path d="M12.9053 18.8933C12.9053 19.577 12.322 20.1418 11.6383 20.1418H10.5979C10.4529 20.1418 10.3043 20.1269 10.1743 20.1083V21.5054C10.1743 22.4938 9.36423 23.2927 8.37213 23.2927H4.68982C2.12595 23.2927 0.0302734 21.2305 0.0302734 18.6517V15.6011H2.57928V18.6517C2.57928 19.8185 3.51936 20.7623 4.68982 20.7623H7.23882C7.62898 20.7623 7.64384 20.4056 7.64384 20.1455V8.78271H10.1743V17.158C10.1743 17.4032 10.3861 17.6113 10.5979 17.6113H11.6383C12.322 17.6113 12.9053 18.165 12.9053 18.8933Z" fill="#3A51A3"/>
<path d="M11.4792 17.6111H11.9325C12.3227 17.6111 12.3561 17.4811 12.3561 17.1875V12.0264H16.5438C18.9144 12.0264 20.6497 13.8285 20.6497 16.214V16.2958C20.6014 18.4398 18.7175 20.1416 16.5438 20.1416C15.5851 20.1416 14.7082 19.8183 14.0133 19.2795C13.4448 19.848 12.698 20.1416 11.9362 20.1416H11.4643C10.7658 20.1267 10.1973 19.5582 10.1973 18.8596C10.2121 18.1611 10.7658 17.6111 11.4792 17.6111ZM16.5438 17.6111C17.3724 17.6111 18.1192 16.9795 18.1527 16.1657V16.1025C18.1527 15.1922 17.4207 14.5456 16.4657 14.5456H14.9088V16.2512C14.9571 17.1095 15.6706 17.6149 16.5475 17.6149L16.5438 17.6111Z" fill="#3A51A3"/>
<path d="M25.9403 20.1415C24.3166 20.1415 22.9863 18.8113 22.9863 17.1875V8.79736H25.5168V17.1875C25.5168 17.4142 25.71 17.6111 25.9403 17.6111H26.6538V20.1415H25.9403Z" fill="#3A51A3"/>
<path d="M42.2373 18.8744C42.2373 19.5729 41.6354 20.1414 40.9702 20.1414H40.3683C39.6363 20.1414 38.9712 19.8665 38.4547 19.428C37.823 19.8813 37.0278 20.1414 36.1806 20.1414C35.0288 20.1414 34.2819 19.7699 33.6985 19.2311C32.9033 19.9148 32.1082 20.1414 30.986 20.1414C30.1908 20.1414 29.4588 19.8813 28.8606 19.4429C28.3404 19.8813 27.6939 20.1414 26.9767 20.1414H26.4565C25.758 20.1414 25.1895 19.5729 25.1895 18.8744C25.1895 18.1758 25.758 17.6259 26.4565 17.6259H26.9767C27.1885 17.6259 27.3817 17.4475 27.3817 17.2209V13.65H29.8824V16.5409C29.8824 17.1911 30.3841 17.6296 31.1309 17.6296C31.993 17.6296 32.4277 17.1428 32.4277 16.4777V13.6538H34.9582V16.5446C34.9582 17.1949 35.3817 17.6147 36.1769 17.6147C37.0204 17.6147 37.444 17.1428 37.444 16.4777V12.03H39.9596V17.2246C39.9596 17.4512 40.123 17.6296 40.3646 17.6296H40.9665C41.6316 17.6296 42.2336 18.213 42.2336 18.8781L42.2373 18.8744ZM32.9182 10.4211C32.9182 11.2014 32.2865 11.833 31.5062 11.833C30.7259 11.833 30.0942 11.2014 30.0942 10.4211C30.0942 9.64074 30.7259 9.02393 31.5062 9.02393C32.2865 9.02393 32.9182 9.65561 32.9182 10.4211ZM34.6386 7.17349C34.6386 7.95379 34.0069 8.58547 33.2266 8.58547C32.4463 8.58547 31.8146 7.95379 31.8146 7.17349C31.8146 6.39318 32.4463 5.77637 33.2266 5.77637C34.0069 5.77637 34.6386 6.40804 34.6386 7.17349ZM36.4259 10.4211C36.4259 11.2014 35.7942 11.833 35.0139 11.833C34.2336 11.833 33.6019 11.2014 33.6019 10.4211C33.6019 9.64074 34.2336 9.02393 35.0139 9.02393C35.7942 9.02393 36.4259 9.65561 36.4259 10.4211Z" fill="#3A51A3"/>
<path d="M39.6406 18.8743C39.6406 18.1757 40.2091 17.6072 40.9077 17.6072H41.6211C41.8478 17.6072 42.0447 17.414 42.0447 17.1836V8.7749H44.5751V17.1836C44.5751 18.8074 43.2449 20.1377 41.6211 20.1377H40.9077C40.2091 20.1377 39.6406 19.5691 39.6406 18.8706V18.8743Z" fill="#3A51A3"/>
<path d="M47.335 8.78271H49.8654V20.1455H47.335V8.78271Z" fill="#3A51A3"/>
<path d="M70.188 19.2349C69.5712 19.8034 68.7129 20.1453 67.7877 20.1453C67.156 20.1453 66.7807 20.097 66.3422 19.9669V20.9739C66.3422 22.4193 65.1755 23.5861 63.7301 23.5861H60.8392C58.2902 23.5861 56.1982 21.4941 56.1982 18.9451V15.6009H58.7472V18.9451C58.7472 20.097 59.6873 21.0371 60.8429 21.0371H63.1318C63.5034 21.0371 63.8118 20.7286 63.8118 20.3571V13.6056H66.3422V16.4964C66.3422 17.1467 66.8141 17.6148 67.6242 17.6148C68.4862 17.6148 68.9544 17.0798 68.9544 16.4444V13.7022H71.4885V16.4927C71.4885 17.2396 72.0719 17.6111 72.8336 17.6111C73.4653 17.6111 74.0041 17.0909 74.0041 16.4407V12.0264H76.5531V16.4407C76.5531 18.5178 74.8959 20.1416 72.7222 20.1416C71.7635 20.1416 70.9052 19.848 70.1918 19.2312L70.188 19.2349Z" fill="#3A51A3"/>
<path d="M81.7773 20.1415C80.1535 20.1415 78.8232 18.8113 78.8232 17.1875V8.79736H81.3537V17.1875C81.3537 17.4142 81.5469 17.6111 81.7773 17.6111H82.4907V20.1415H81.7773Z" fill="#3A51A3"/>
<path d="M93.5642 18.8745C93.5642 19.5731 92.9957 20.1416 92.2972 20.1416H91.8104C91.0152 20.1416 90.2832 19.8332 89.7667 19.2981C89.083 19.8332 88.2396 20.1416 87.3329 20.1416C86.2293 20.1416 85.4193 19.8815 84.6724 19.2981C84.1039 19.8517 83.3905 20.1416 82.6102 20.1416H82.0268C81.3283 20.1267 80.7598 19.5582 80.7598 18.8596C80.7598 18.1611 81.3283 17.6111 82.0268 17.6111H82.6102C82.9038 17.6111 83.0338 17.496 83.0338 17.1727V12.0264H87.3329C89.5066 12.0264 91.3274 13.7468 91.3905 15.9056V17.1727C91.3905 17.4142 91.5837 17.6111 91.8104 17.6111H92.2972C92.9957 17.6111 93.5642 18.1796 93.5642 18.8782V18.8745ZM88.8415 15.9539C88.7783 15.1104 88.143 14.5568 87.1063 14.5568H85.5977V16.162C85.5977 16.972 86.3111 17.6074 87.1063 17.6074C88.2247 17.6074 88.8415 16.9423 88.8415 16.0802V15.9502V15.9539Z" fill="#3A51A3"/>
<path d="M90.7881 18.8743C90.7881 18.1757 91.3566 17.6072 92.0552 17.6072H92.7686C92.9952 17.6072 93.1922 17.414 93.1922 17.1836V8.7749H95.7226V17.1836C95.7226 18.8074 94.3924 20.1377 92.7686 20.1377H92.0552C91.3566 20.1377 90.7881 19.5691 90.7881 18.8706V18.8743Z" fill="#3A51A3"/>
<path d="M101.582 7.90544H97.7695V6.63837H98.3046C98.2563 6.42658 98.2414 6.21478 98.2563 6.02156C98.3715 5.21153 99.0515 4.52783 99.9618 4.52783C100.694 4.52783 101.292 4.86968 101.6 5.54966L100.627 6.29653C100.415 5.93981 100.319 5.80976 99.9618 5.80976C99.7352 5.80976 99.5382 5.97325 99.5382 6.16647C99.5382 6.28166 99.5717 6.63837 99.9618 6.63837H101.586V7.90544H101.582ZM98.3195 8.78236H100.85V20.1451H98.3195V8.78236Z" fill="#3A51A3"/>
<path d="M4.91593 32.8386C4.99396 32.9166 5.03484 33.0132 5.03855 33.1247C5.03855 33.2362 4.99768 33.3328 4.91965 33.4108C4.84162 33.4888 4.74501 33.5334 4.63354 33.5372H4.22109C3.99443 33.5372 3.77892 33.4814 3.5857 33.3662C3.38876 33.251 3.23642 33.0987 3.12494 32.9018C2.97631 33.0987 2.78681 33.2548 2.55643 33.3662C2.32606 33.4814 2.08082 33.5372 1.82072 33.5372C1.49745 33.5372 1.19275 33.4591 0.914074 33.2993C0.631677 33.1396 0.408732 32.9241 0.245239 32.6565C0.0817464 32.3853 0 32.088 0 31.7647V31.5195C0 31.1739 0.0780307 30.8655 0.237808 30.598C0.397585 30.3267 0.613098 30.1149 0.891779 29.9663C1.16674 29.814 1.47887 29.7397 1.82443 29.7397H3.66373L3.67116 32.166C3.67116 32.3295 3.71946 32.4633 3.81979 32.5673C3.92011 32.6714 4.05388 32.7234 4.22852 32.7234H4.63354C4.74872 32.7234 4.84534 32.7643 4.92337 32.8423L4.91593 32.8386ZM2.32977 32.5822C2.48584 32.4893 2.60845 32.3667 2.70135 32.2069C2.79053 32.0509 2.83512 31.8799 2.83512 31.6941V30.572L1.817 30.5646C1.64236 30.5608 1.47515 30.598 1.31909 30.676C1.16303 30.7541 1.03669 30.8692 0.940084 31.0142C0.843475 31.1591 0.79517 31.33 0.79517 31.5195V31.735C0.79517 31.9171 0.839759 32.0806 0.932653 32.2329C1.02555 32.3853 1.15188 32.5042 1.30794 32.5896C1.464 32.6788 1.63121 32.7197 1.81328 32.7197C1.99536 32.7197 2.17 32.6751 2.32606 32.5785L2.32977 32.5822ZM1.86159 28.2162C1.9582 28.3128 2.01022 28.428 2.01022 28.5655C2.01022 28.703 1.96191 28.8219 1.86159 28.9185C1.76498 29.0151 1.64608 29.0671 1.50859 29.0671C1.37111 29.0671 1.25221 29.0188 1.1556 28.9185C1.05899 28.8182 1.00697 28.703 1.00697 28.5655C1.00697 28.428 1.05527 28.3165 1.1556 28.2199C1.25221 28.1233 1.37111 28.0713 1.50859 28.0713C1.64608 28.0713 1.76498 28.1196 1.86159 28.2162ZM3.19926 28.2199C3.29958 28.3165 3.3516 28.4317 3.3516 28.5655C3.3516 28.6992 3.29958 28.8219 3.19926 28.9185C3.09893 29.0151 2.98003 29.0671 2.84255 29.0671C2.70506 29.0671 2.58616 29.0188 2.49327 28.9185C2.39666 28.8219 2.34835 28.703 2.34835 28.5655C2.34835 28.428 2.39666 28.3091 2.49698 28.2162C2.59359 28.1196 2.70878 28.0713 2.84255 28.0713C2.97631 28.0713 3.09893 28.1196 3.19926 28.2199Z" fill="#3A51A3"/>
<path d="M7.34026 32.8346C7.4183 32.9126 7.45917 33.0092 7.45917 33.1244C7.45917 33.2396 7.4183 33.3399 7.33655 33.418C7.2548 33.496 7.15819 33.5369 7.04672 33.5369H6.83121C6.63427 33.5369 6.44848 33.496 6.27384 33.4142C6.0992 33.3325 5.95058 33.221 5.82796 33.0761C5.71277 33.221 5.57157 33.3325 5.40436 33.4142C5.24087 33.496 5.06251 33.5369 4.86929 33.5369H4.57575C4.45313 33.5369 4.3528 33.496 4.27106 33.418C4.18931 33.3399 4.14844 33.2396 4.14844 33.1244C4.14844 33.0092 4.18931 32.9089 4.27106 32.8346C4.3528 32.7566 4.45684 32.7194 4.57575 32.7194H4.78383C4.94361 32.7194 5.08109 32.66 5.19256 32.5448C5.30775 32.4296 5.36349 32.2884 5.36349 32.1212V27.9893H6.1921V32.1286C6.20696 32.2921 6.27756 32.4333 6.40018 32.5448C6.5228 32.66 6.664 32.7157 6.83121 32.7157H7.05415C7.16562 32.7157 7.26223 32.7528 7.34026 32.8309V32.8346Z" fill="#3A51A3"/>
<path d="M6.97514 32.7191H7.23896C7.4136 32.7191 7.55108 32.6671 7.64769 32.563C7.7443 32.459 7.79632 32.3252 7.79632 32.1617V29.7354H9.64304C9.98118 29.7354 10.2933 29.8171 10.572 29.9806C10.8507 30.1441 11.0699 30.367 11.2297 30.6494C11.3894 30.9318 11.4675 31.2439 11.4675 31.5895V31.7902C11.4638 32.1097 11.3746 32.4033 11.2074 32.6708C11.0402 32.9383 10.8172 33.1501 10.5385 33.3062C10.2599 33.4622 9.95888 33.5403 9.63561 33.5403C9.37551 33.5403 9.13027 33.4808 8.90361 33.3656C8.67695 33.2505 8.48745 33.0944 8.33882 32.9049C8.22735 33.1018 8.075 33.2579 7.87806 33.3694C7.68113 33.4845 7.46933 33.5403 7.24267 33.5403H6.97142C6.85995 33.5366 6.76334 33.492 6.68531 33.4139C6.60728 33.3359 6.56641 33.2393 6.56641 33.1278C6.57012 33.0164 6.611 32.9197 6.68903 32.8417C6.76706 32.7637 6.86367 32.7228 6.97885 32.7228L6.97514 32.7191ZM9.63933 32.7191C9.91429 32.7154 10.1521 32.6188 10.349 32.4293C10.546 32.2398 10.6463 32.0131 10.65 31.7493V31.5598C10.65 31.2737 10.5497 31.0359 10.3528 30.8426C10.1521 30.6531 9.90686 30.5565 9.61703 30.5565H8.62121V31.7827C8.62493 32.054 8.72897 32.2769 8.92219 32.4553C9.11912 32.6336 9.35693 32.7228 9.63933 32.7228V32.7191Z" fill="#3A51A3"/>
<path d="M13.377 33.3733C13.1875 33.2618 13.0388 33.1132 12.9311 32.9237C12.8233 32.7342 12.7676 32.5298 12.7676 32.3069V27.978H13.5888V32.3069C13.5888 32.4221 13.6296 32.5224 13.7077 32.6004C13.7857 32.6784 13.886 32.7193 14.0012 32.7193H14.3579V33.5405H13.9901C13.7671 33.5405 13.5627 33.4848 13.3732 33.3733H13.377Z" fill="#3A51A3"/>
<path d="M19.8982 32.7195V33.5295L14.1982 33.5369V32.7157H18.1927V31.8091C18.1927 31.5824 18.1369 31.3706 18.0217 31.1774C17.9066 30.9842 17.7542 30.8319 17.5647 30.7204C17.3752 30.6089 17.1634 30.5532 16.9367 30.5532H15.0677L14.6144 29.628L16.2531 27.3428L16.9219 27.8221L15.5619 29.7246H16.9962C17.3603 29.7246 17.7022 29.8175 18.0106 29.9995C18.3227 30.1816 18.568 30.4306 18.75 30.739C18.9321 31.0474 19.025 31.3892 19.025 31.7608V32.7157H19.9019L19.8982 32.7195Z" fill="#3A51A3"/>
<path d="M23.0422 32.8346C23.1203 32.9126 23.1611 33.0092 23.1611 33.1244C23.1611 33.2396 23.1203 33.3399 23.0385 33.4179C22.9568 33.496 22.8602 33.5368 22.7487 33.5368H22.366C22.169 33.5368 21.9832 33.496 21.8086 33.4142C21.634 33.3325 21.4853 33.221 21.3627 33.0761C21.2475 33.221 21.1063 33.3325 20.9391 33.4142C20.7756 33.496 20.5973 33.5368 20.404 33.5368H19.817C19.6943 33.5368 19.594 33.4997 19.5123 33.4217C19.4305 33.3436 19.3896 33.247 19.3896 33.1318C19.3896 33.0166 19.4305 32.9163 19.5123 32.8383C19.594 32.7603 19.6981 32.7194 19.817 32.7194H20.3186C20.4784 32.7194 20.6158 32.6599 20.7273 32.5447C20.8425 32.4296 20.8982 32.2884 20.8982 32.1211V30.5048H21.7269V32.1286C21.7417 32.2921 21.8123 32.4333 21.9349 32.5447C22.0576 32.6599 22.1988 32.7157 22.366 32.7157H22.7487C22.8639 32.7157 22.9642 32.7528 23.0422 32.8309V32.8346ZM20.9688 28.829C21.0655 28.9256 21.1175 29.0408 21.1175 29.1783C21.1175 29.3158 21.0692 29.4347 20.9688 29.5313C20.8722 29.6279 20.7533 29.6799 20.6158 29.6799C20.4784 29.6799 20.3669 29.6279 20.2666 29.5276C20.1662 29.4272 20.1142 29.312 20.1142 29.1783C20.1142 29.0445 20.1625 28.9293 20.2629 28.8327C20.3595 28.7361 20.4784 28.6841 20.6158 28.6841C20.7533 28.6841 20.8722 28.7324 20.9688 28.8253V28.829ZM22.3139 28.8327C22.4106 28.9293 22.4626 29.0482 22.4626 29.1783C22.4626 29.3083 22.4143 29.4272 22.3139 29.5276C22.2173 29.6279 22.0984 29.6799 21.9609 29.6799C21.8235 29.6799 21.7046 29.6316 21.608 29.5313C21.5113 29.4347 21.4593 29.3158 21.4593 29.1783C21.4593 29.0408 21.5076 28.9219 21.608 28.829C21.7083 28.7361 21.8235 28.6878 21.9609 28.6878C22.0984 28.6878 22.2173 28.7361 22.3139 28.8364V28.8327Z" fill="#3A51A3"/>
<path d="M28.2134 32.838C28.2915 32.916 28.3323 33.0164 28.3323 33.1315C28.3323 33.2467 28.2915 33.3396 28.2134 33.4177C28.1354 33.4957 28.0351 33.5366 27.9199 33.5366H27.6412C27.422 33.5366 27.225 33.4808 27.0392 33.3656C26.8572 33.2505 26.7234 33.1055 26.6379 32.9235C26.4893 33.113 26.3035 33.2653 26.0806 33.3731C25.8576 33.4808 25.6198 33.5366 25.3634 33.5366C25.081 33.5366 24.8284 33.4808 24.598 33.3731C24.3713 33.2653 24.1744 33.1092 24.0183 32.9086C23.9069 33.0981 23.7545 33.2505 23.5613 33.3656C23.3681 33.4808 23.1563 33.5366 22.9296 33.5366H22.6286C22.5172 33.5328 22.4206 33.4883 22.3425 33.4102C22.2645 33.3322 22.2236 33.2356 22.2236 33.1241C22.2236 33.0126 22.2645 32.916 22.3425 32.838C22.4206 32.76 22.5172 32.7191 22.6286 32.7191H22.9296C23.0931 32.7191 23.2269 32.6671 23.3309 32.563C23.435 32.459 23.487 32.3252 23.487 32.1617V29.7354H25.3634C25.683 29.7354 25.9803 29.8134 26.2552 29.9694C26.5302 30.1255 26.7531 30.341 26.9203 30.6085C27.0875 30.8761 27.173 31.1733 27.1804 31.4929V32.2509C27.1804 32.3847 27.225 32.4962 27.3142 32.5853C27.4034 32.6745 27.5149 32.7191 27.6412 32.7191H27.9199C28.0351 32.7191 28.1354 32.76 28.2134 32.838ZM26.0434 30.8278C25.8502 30.6494 25.6012 30.5602 25.3003 30.5602H24.3119V31.753C24.3119 31.9276 24.3565 32.0874 24.4457 32.236C24.5348 32.381 24.6574 32.4999 24.8061 32.5853C24.9584 32.6745 25.1219 32.7154 25.2966 32.7154C25.605 32.7117 25.8576 32.6151 26.0509 32.4255C26.2478 32.236 26.3444 32.002 26.3444 31.7233V31.5078C26.3333 31.2328 26.2329 31.0061 26.0397 30.8278H26.0434Z" fill="#3A51A3"/>
<path d="M27.5378 33.4216C27.4598 33.3435 27.4189 33.2469 27.4189 33.1355C27.4189 33.024 27.4598 32.92 27.5378 32.8419C27.6159 32.7639 27.7162 32.723 27.8314 32.723H28.2773C28.3888 32.723 28.4854 32.6821 28.5671 32.6041C28.6489 32.5261 28.6897 32.4258 28.6897 32.3106V27.9966H29.5109V32.3106C29.5109 32.5335 29.4552 32.7379 29.3474 32.9274C29.2397 33.1169 29.091 33.2655 28.9015 33.377C28.712 33.4885 28.5077 33.5442 28.2847 33.5442H27.8314C27.7162 33.5442 27.6159 33.5033 27.5378 33.4253V33.4216Z" fill="#3A51A3"/>
<path d="M30.9941 27.9668H31.8153V33.5367H30.9941V27.9668Z" fill="#3A51A3"/>
<path d="M40.3466 32.8386C40.4246 32.9166 40.4655 33.0132 40.4692 33.1247C40.4692 33.2362 40.4283 33.3328 40.3503 33.4108C40.2723 33.4888 40.1757 33.5334 40.0642 33.5372H39.6518C39.4251 33.5372 39.2096 33.4814 39.0164 33.3662C38.8194 33.251 38.6671 33.0987 38.5556 32.9018C38.407 33.0987 38.2175 33.2548 37.9871 33.3662C37.7567 33.4814 37.5115 33.5372 37.2514 33.5372C36.9281 33.5372 36.6234 33.4591 36.3447 33.2993C36.0623 33.1396 35.8394 32.9241 35.6759 32.6565C35.5124 32.3853 35.4307 32.088 35.4307 31.7647V31.5195C35.4307 31.1739 35.5087 30.8655 35.6685 30.598C35.8282 30.3267 36.0438 30.1149 36.3224 29.9663C36.5974 29.814 36.9095 29.7397 37.2551 29.7397H39.0944L39.1018 32.166C39.1018 32.3295 39.1501 32.4633 39.2505 32.5673C39.3508 32.6714 39.4845 32.7234 39.6592 32.7234H40.0642C40.1794 32.7234 40.276 32.7643 40.354 32.8423L40.3466 32.8386ZM37.7604 32.5822C37.9165 32.4893 38.0391 32.3667 38.132 32.2069C38.2212 32.0509 38.2658 31.8799 38.2658 31.6941V30.572L37.2477 30.5646C37.073 30.5608 36.9058 30.598 36.7498 30.676C36.5937 30.7541 36.4674 30.8692 36.3707 31.0142C36.2741 31.1591 36.2258 31.33 36.2258 31.5195V31.735C36.2258 31.9171 36.2704 32.0806 36.3633 32.2329C36.4562 32.3853 36.5825 32.5042 36.7386 32.5896C36.8947 32.6788 37.0619 32.7197 37.2439 32.7197C37.426 32.7197 37.6007 32.6751 37.7567 32.5785L37.7604 32.5822ZM37.2923 28.2162C37.3889 28.3128 37.4409 28.428 37.4409 28.5655C37.4409 28.703 37.3926 28.8219 37.2923 28.9185C37.1956 29.0151 37.0767 29.0671 36.9393 29.0671C36.8018 29.0671 36.6829 29.0188 36.5863 28.9185C36.4897 28.8182 36.4376 28.703 36.4376 28.5655C36.4376 28.428 36.4859 28.3165 36.5863 28.2199C36.6829 28.1233 36.8018 28.0713 36.9393 28.0713C37.0767 28.0713 37.1956 28.1196 37.2923 28.2162ZM38.6336 28.2199C38.734 28.3165 38.786 28.4317 38.786 28.5655C38.786 28.6992 38.734 28.8219 38.6336 28.9185C38.5333 29.0151 38.4144 29.0671 38.2769 29.0671C38.1394 29.0671 38.0205 29.0188 37.9276 28.9185C37.831 28.8219 37.7827 28.703 37.7827 28.5655C37.7827 28.428 37.831 28.3091 37.9314 28.2162C38.028 28.1196 38.1432 28.0713 38.2769 28.0713C38.4107 28.0713 38.5333 28.1196 38.6336 28.2199Z" fill="#3A51A3"/>
<path d="M43.4789 32.8346C43.5569 32.9126 43.5978 33.0092 43.5978 33.1244C43.5978 33.2396 43.5569 33.3399 43.4752 33.4179C43.3934 33.496 43.2968 33.5368 43.1853 33.5368H42.6131C42.4162 33.5368 42.2304 33.496 42.0557 33.4142C41.8811 33.3325 41.7325 33.221 41.6099 33.0761C41.4947 33.221 41.3535 33.3325 41.1863 33.4142C41.0228 33.496 40.8444 33.5368 40.6512 33.5368H40.0084C39.8857 33.5368 39.7854 33.496 39.7037 33.4179C39.6219 33.3399 39.5811 33.2396 39.5811 33.1244C39.5811 33.0092 39.6219 32.9089 39.7037 32.8346C39.7854 32.7565 39.8895 32.7194 40.0084 32.7194H40.5657C40.7255 32.7194 40.863 32.6599 40.9745 32.5447C41.0896 32.4295 41.1454 32.2883 41.1454 32.1211V30.4268H41.974V32.1286C41.9889 32.2921 42.0595 32.4333 42.1821 32.5447C42.3047 32.6599 42.4459 32.7157 42.6131 32.7157H43.1853C43.3005 32.7157 43.4008 32.7528 43.4789 32.8308V32.8346ZM41.1825 34.41C41.2792 34.5066 41.3312 34.6218 41.3312 34.7556C41.3312 34.8894 41.2829 35.012 41.1825 35.1086C41.0859 35.2052 40.967 35.2572 40.8295 35.2572C40.6921 35.2572 40.5732 35.2089 40.4766 35.1086C40.3799 35.012 40.3279 34.8931 40.3279 34.7556C40.3279 34.6181 40.3799 34.5066 40.4803 34.41C40.5806 34.3134 40.6995 34.2614 40.8295 34.2614C40.9596 34.2614 41.0859 34.3097 41.1825 34.41ZM42.5462 34.41C42.6465 34.5066 42.6986 34.6218 42.6986 34.7556C42.6986 34.8894 42.6465 35.012 42.5462 35.1086C42.4459 35.2052 42.327 35.2572 42.1895 35.2572C42.052 35.2572 41.9331 35.2089 41.8402 35.1086C41.7436 35.012 41.6953 34.8931 41.6953 34.7556C41.6953 34.6181 41.7436 34.5066 41.8439 34.41C41.9406 34.3134 42.0557 34.2614 42.1895 34.2614C42.3233 34.2614 42.4459 34.3097 42.5462 34.41Z" fill="#3A51A3"/>
<path d="M48.0365 33.5403H43.1094V32.7191H44.1535C43.8674 32.4628 43.7225 32.1395 43.7225 31.7419V31.5041C43.7225 31.1808 43.8042 30.8836 43.9677 30.6123C44.1312 30.3411 44.3542 30.1255 44.6291 29.9695C44.9041 29.8097 45.2051 29.7317 45.5283 29.7317C45.8516 29.7317 46.1414 29.8097 46.4164 29.9695C46.6914 30.1293 46.9069 30.3448 47.0666 30.6197C47.2264 30.8947 47.3045 31.1883 47.3045 31.5078V32.4479C47.3045 32.5371 47.2822 32.63 47.2339 32.7266H48.0365V33.5478V33.5403ZM44.5399 28.8882C44.4433 28.7916 44.3913 28.6727 44.3913 28.5352C44.3913 28.3977 44.4396 28.2788 44.5399 28.1859C44.6365 28.0893 44.7555 28.041 44.8929 28.041C45.0304 28.041 45.1493 28.0893 45.2459 28.1896C45.3425 28.2863 45.3946 28.4052 45.3946 28.5352C45.3946 28.6653 45.3463 28.7842 45.2459 28.8845C45.1456 28.9848 45.0304 29.0368 44.8929 29.0368C44.7555 29.0368 44.6365 28.9885 44.5399 28.8882ZM46.4535 32.6783C46.4796 32.6523 46.4944 32.6188 46.4944 32.5817V31.5004C46.4944 31.2366 46.4015 31.0099 46.2157 30.8241C46.03 30.6383 45.8033 30.5454 45.5395 30.5454C45.3574 30.5454 45.1902 30.59 45.0341 30.6792C44.8781 30.7684 44.7555 30.8947 44.6626 31.0508C44.5734 31.2068 44.5288 31.3778 44.5288 31.5635V31.7642C44.5288 32.0354 44.6291 32.2621 44.8261 32.4442C45.0267 32.6262 45.2608 32.7191 45.5395 32.7191H46.3681C46.4015 32.7191 46.4275 32.7043 46.4573 32.6783H46.4535ZM45.8962 28.8845C45.7959 28.7842 45.7438 28.6653 45.7438 28.5352C45.7438 28.4052 45.7921 28.2863 45.8925 28.1896C45.9891 28.093 46.108 28.041 46.2455 28.041C46.3829 28.041 46.5019 28.0893 46.5985 28.1859C46.6951 28.2825 46.7471 28.3977 46.7471 28.5352C46.7471 28.6727 46.6988 28.7916 46.5985 28.8882C46.4981 28.9848 46.3829 29.0368 46.2455 29.0368C46.108 29.0368 45.9965 28.9848 45.8962 28.8845Z" fill="#3A51A3"/>
<path d="M47.6763 33.4143C47.5946 33.3326 47.5537 33.2359 47.5537 33.1245C47.5537 33.0093 47.5946 32.909 47.6763 32.8346C47.7581 32.7566 47.8584 32.7195 47.9736 32.7195H49.2555C49.3781 32.7195 49.4822 32.6786 49.5676 32.5931C49.6531 32.5077 49.694 32.4036 49.694 32.2847V29.7617H50.5152V32.2847C50.5152 32.5114 50.4594 32.7232 50.3442 32.9127C50.229 33.1022 50.0767 33.2545 49.8835 33.3697C49.6903 33.4849 49.4785 33.5406 49.2518 33.5406H47.9773C47.8621 33.5406 47.7618 33.4998 47.68 33.418L47.6763 33.4143ZM48.9954 34.4101C49.092 34.5067 49.1441 34.6219 49.1441 34.7557C49.1441 34.8895 49.0957 35.0121 48.9954 35.1087C48.8988 35.2053 48.7799 35.2573 48.6424 35.2573C48.5049 35.2573 48.386 35.209 48.2894 35.1087C48.1928 35.0121 48.1408 34.8932 48.1408 34.7557C48.1408 34.6182 48.1928 34.5067 48.2931 34.4101C48.3935 34.3135 48.5087 34.2615 48.6424 34.2615C48.7762 34.2615 48.8988 34.3098 48.9954 34.4101ZM50.3591 34.4101C50.4557 34.5067 50.5077 34.6219 50.5077 34.7557C50.5077 34.8895 50.4594 35.0121 50.3591 35.1087C50.2625 35.2053 50.1436 35.2573 50.0061 35.2573C49.8686 35.2573 49.7497 35.209 49.6531 35.1087C49.5565 35.0121 49.5045 34.8932 49.5045 34.7557C49.5045 34.6182 49.5565 34.5067 49.6568 34.4101C49.7571 34.3135 49.876 34.2615 50.0061 34.2615C50.1362 34.2615 50.2625 34.3098 50.3591 34.4101Z" fill="#3A51A3"/>
<path d="M55.6946 33.5405H55.0035C54.9775 34.0607 54.7842 34.488 54.4312 34.8224C54.1489 35.0862 53.8293 35.2609 53.4652 35.3463C53.101 35.4318 52.5734 35.4727 51.8785 35.4727L51.886 34.6515H52.1646C52.5734 34.6515 52.9152 34.6255 53.1902 34.5697C53.4652 34.514 53.6992 34.3988 53.8887 34.2242C54.0262 34.0978 54.1117 33.912 54.1451 33.6668L54.1526 33.5405H53.2682C52.9227 33.5405 52.6105 33.455 52.3244 33.2841C52.042 33.1132 51.8191 32.8828 51.6556 32.5892C51.4921 32.2957 51.4141 31.9724 51.4141 31.6231C51.4141 31.2739 51.4958 30.9617 51.6556 30.6719C51.8154 30.3821 52.042 30.1554 52.3244 29.9882C52.6068 29.821 52.9227 29.7393 53.2682 29.7393H55.0035V32.723H55.6946V33.5442V33.5405ZM54.1749 30.5642H53.2682C52.971 30.5642 52.722 30.6682 52.5251 30.8726C52.3244 31.0769 52.2278 31.3259 52.2278 31.6231C52.2278 31.9204 52.3281 32.1917 52.5251 32.4034C52.7257 32.6152 52.971 32.723 53.2682 32.723H54.1749V30.5679V30.5642Z" fill="#3A51A3"/>
<path d="M63.4056 32.8419C63.491 32.9236 63.5319 33.0165 63.5319 33.1243C63.5319 33.232 63.491 33.3324 63.4093 33.4141C63.3275 33.4959 63.2309 33.5367 63.1195 33.5367H62.6253C62.4283 33.5367 62.25 33.4921 62.0828 33.3955C61.9193 33.3026 61.7892 33.18 61.6926 33.024C61.5588 33.1837 61.3953 33.3064 61.1947 33.3992C60.994 33.4884 60.7822 33.533 60.5556 33.533C60.2918 33.533 60.054 33.4773 59.8459 33.3695C59.6378 33.2618 59.4743 33.1131 59.3517 32.9273C59.0396 33.3324 58.6122 33.533 58.0697 33.533C57.8728 33.533 57.6759 33.4921 57.4827 33.4141C57.2894 33.3361 57.1222 33.2097 56.9885 33.0388C56.8919 33.1874 56.7655 33.3063 56.602 33.3955C56.4385 33.4847 56.2676 33.5293 56.0818 33.5293H55.5951C55.4836 33.5293 55.387 33.4884 55.3052 33.4104C55.2235 33.3324 55.1826 33.232 55.1826 33.1168C55.1826 33.0091 55.2235 32.9162 55.3052 32.8345C55.387 32.7527 55.4836 32.7118 55.5951 32.7118H56.0818C56.1933 32.7118 56.2899 32.671 56.3717 32.5929C56.4534 32.5149 56.4943 32.4146 56.4943 32.2994V30.5158H57.3043V31.9575C57.3043 32.1768 57.3823 32.3551 57.5347 32.5C57.687 32.6449 57.884 32.7155 58.1143 32.7155C58.3447 32.7155 58.5565 32.6412 58.7089 32.4926C58.8612 32.344 58.9355 32.1582 58.9355 31.9352V30.5195H59.7567V31.9612C59.7567 32.1842 59.831 32.3663 59.9759 32.5075C60.1208 32.6487 60.3141 32.7193 60.5519 32.7193C60.7897 32.7193 60.994 32.6449 61.1501 32.4963C61.3062 32.3477 61.3805 32.1619 61.3805 31.939V29.7578H62.1905L62.1979 32.3031C62.1979 32.4183 62.2388 32.5186 62.3206 32.5966C62.4023 32.6747 62.5026 32.7155 62.6178 32.7155H63.112C63.2198 32.7155 63.3127 32.7564 63.3981 32.8382L63.4056 32.8419Z" fill="#3A51A3"/>
<path d="M66.3264 32.8346C66.4044 32.9126 66.4453 33.0092 66.4453 33.1244C66.4453 33.2396 66.4044 33.3399 66.3227 33.4179C66.2409 33.496 66.1443 33.5368 66.0329 33.5368H65.6501C65.4532 33.5368 65.2674 33.496 65.0928 33.4142C64.9181 33.3325 64.7695 33.221 64.6469 33.0761C64.5317 33.221 64.3905 33.3325 64.2233 33.4142C64.0598 33.496 63.8815 33.5368 63.6882 33.5368H63.1011C62.9785 33.5368 62.8782 33.4997 62.7964 33.4217C62.7147 33.3436 62.6738 33.247 62.6738 33.1318C62.6738 33.0166 62.7147 32.9163 62.7964 32.8383C62.8782 32.7603 62.9822 32.7194 63.1011 32.7194H63.6028C63.7625 32.7194 63.9 32.6599 64.0115 32.5447C64.1267 32.4296 64.1824 32.2884 64.1824 32.1211V30.5048H65.011V32.1286C65.0259 32.2921 65.0965 32.4333 65.2191 32.5447C65.3417 32.6599 65.4829 32.7157 65.6501 32.7157H66.0329C66.1481 32.7157 66.2484 32.7528 66.3264 32.8309V32.8346ZM64.253 28.829C64.3496 28.9256 64.4017 29.0408 64.4017 29.1783C64.4017 29.3158 64.3533 29.4347 64.253 29.5313C64.1564 29.6279 64.0375 29.6799 63.9 29.6799C63.7625 29.6799 63.6511 29.6279 63.5507 29.5276C63.4504 29.4272 63.3984 29.312 63.3984 29.1783C63.3984 29.0445 63.4467 28.9293 63.547 28.8327C63.6436 28.7361 63.7625 28.6841 63.9 28.6841C64.0375 28.6841 64.1564 28.7324 64.253 28.8253V28.829ZM65.5981 28.8327C65.6947 28.9293 65.7468 29.0482 65.7468 29.1783C65.7468 29.3083 65.6985 29.4272 65.5981 29.5276C65.5015 29.6279 65.3826 29.6799 65.2451 29.6799C65.1076 29.6799 64.9887 29.6316 64.8921 29.5313C64.7955 29.4347 64.7435 29.3158 64.7435 29.1783C64.7435 29.0408 64.7918 28.9219 64.8921 28.829C64.9925 28.7361 65.1076 28.6878 65.2451 28.6878C65.3826 28.6878 65.5015 28.7361 65.5981 28.8364V28.8327Z" fill="#3A51A3"/>
<path d="M65.7068 33.4216C65.6288 33.3435 65.5879 33.2469 65.5879 33.1355C65.5879 33.024 65.6288 32.92 65.7068 32.8419C65.7848 32.7639 65.8852 32.723 66.0003 32.723H66.4462C66.5577 32.723 66.6543 32.6821 66.7361 32.6041C66.8178 32.5261 66.8587 32.4258 66.8587 32.3106V27.9966H67.6799V32.3106C67.6799 32.5335 67.6241 32.7379 67.5164 32.9274C67.4086 33.1169 67.26 33.2655 67.0705 33.377C66.881 33.4885 66.6766 33.5442 66.4537 33.5442H66.0003C65.8852 33.5442 65.7848 33.5033 65.7068 33.4253V33.4216Z" fill="#3A51A3"/>
<path d="M69.1621 27.9668H69.9833V33.5367H69.1621V27.9668Z" fill="#3A51A3"/>
<path d="M79.2944 33.3105C79.1383 33.4628 78.9525 33.5409 78.7333 33.5409H75.1662C74.8689 33.5409 74.594 33.4666 74.345 33.3216C74.096 33.1767 73.8991 32.9798 73.7505 32.7346C73.6056 32.4893 73.5312 32.2181 73.5312 31.9282V30.598H74.3673V31.9282C74.3673 32.1512 74.4453 32.3407 74.5977 32.493C74.75 32.6454 74.9395 32.7234 75.1625 32.7234H78.5215C78.5698 32.7234 78.6107 32.7048 78.6441 32.6714C78.6776 32.6379 78.6961 32.5971 78.6961 32.5488V29.7694H79.5248V32.7531C79.5248 32.9686 79.4467 33.1544 79.2907 33.3105H79.2944ZM76.2363 28.8962C76.3366 28.9928 76.3887 29.108 76.3887 29.2418C76.3887 29.3755 76.3366 29.4981 76.2363 29.5947C76.136 29.6914 76.0171 29.7434 75.8796 29.7434C75.7421 29.7434 75.6232 29.6951 75.5303 29.5947C75.4337 29.4981 75.3854 29.3792 75.3854 29.2418C75.3854 29.1043 75.4337 28.9854 75.534 28.8925C75.6344 28.7996 75.7458 28.7476 75.8796 28.7476C76.0134 28.7476 76.136 28.7959 76.2363 28.8962ZM77.5814 28.8962C77.6817 28.9928 77.7338 29.108 77.7338 29.2418C77.7338 29.3755 77.6817 29.4981 77.5814 29.5947C77.4811 29.6914 77.3622 29.7434 77.2247 29.7434C77.0872 29.7434 76.9683 29.6951 76.8754 29.5947C76.7788 29.4981 76.7305 29.3792 76.7305 29.2418C76.7305 29.1043 76.7788 28.9854 76.8791 28.8925C76.9795 28.7996 77.0909 28.7476 77.2247 28.7476C77.3585 28.7476 77.4811 28.7959 77.5814 28.8962Z" fill="#3A51A3"/>
<path d="M81.4043 33.3733C81.2148 33.2618 81.0662 33.1132 80.9584 32.9237C80.8507 32.7342 80.7949 32.5298 80.7949 32.3069V27.978H81.6161V32.3069C81.6161 32.4221 81.657 32.5224 81.735 32.6004C81.813 32.6784 81.9134 32.7193 82.0286 32.7193H82.3853V33.5405H82.0174C81.7945 33.5405 81.5901 33.4848 81.4006 33.3733H81.4043Z" fill="#3A51A3"/>
<path d="M82.2456 32.7191H82.5095C82.6841 32.7191 82.8216 32.6671 82.9182 32.563C83.0148 32.459 83.0668 32.3252 83.0668 32.1617V29.7354H84.9136C85.2517 29.7354 85.5638 29.8171 85.8425 29.9806C86.1212 30.1441 86.3404 30.367 86.5002 30.6494C86.66 30.9318 86.738 31.2439 86.738 31.5895V31.7902C86.7343 32.1097 86.6451 32.4033 86.4779 32.6708C86.3107 32.9383 86.0877 33.1501 85.809 33.3062C85.5304 33.4622 85.2294 33.5403 84.9061 33.5403C84.646 33.5403 84.4008 33.4808 84.1741 33.3656C83.9475 33.2505 83.758 33.0944 83.6093 32.9049C83.4979 33.1018 83.3455 33.2579 83.1486 33.3694C82.9516 33.4845 82.7398 33.5403 82.5132 33.5403H82.2419C82.1305 33.5366 82.0339 33.492 81.9558 33.4139C81.8778 33.3359 81.8369 33.2393 81.8369 33.1278C81.8406 33.0164 81.8815 32.9197 81.9595 32.8417C82.0376 32.7637 82.1342 32.7228 82.2494 32.7228L82.2456 32.7191ZM84.9098 32.7191C85.1848 32.7154 85.4226 32.6188 85.6195 32.4293C85.8165 32.2398 85.9168 32.0131 85.9205 31.7493V31.5598C85.9205 31.2737 85.8202 31.0359 85.6233 30.8426C85.4226 30.6531 85.1774 30.5565 84.8875 30.5565H83.8917V31.7827C83.8954 32.054 83.9995 32.2769 84.1927 32.4553C84.3896 32.6336 84.6274 32.7228 84.9098 32.7228V32.7191Z" fill="#3A51A3"/>
<path d="M92.5708 32.8421C92.6488 32.9238 92.686 33.0204 92.686 33.1319C92.686 33.2434 92.6488 33.34 92.5708 33.418C92.4928 33.4961 92.3962 33.5369 92.281 33.5369H92.0915C91.8537 33.5369 91.627 33.4961 91.4115 33.4106C91.196 33.3251 91.0065 33.2025 90.843 33.0427C90.7092 33.1951 90.5494 33.3177 90.3599 33.4032C90.1704 33.4886 89.9735 33.5332 89.7654 33.5332H87.666V32.712H89.7654C89.862 32.712 89.9475 32.6935 90.0218 32.6563C90.0961 32.6191 90.1518 32.5708 90.189 32.5151C90.2745 32.4185 90.3153 32.307 90.3153 32.1807C90.3153 32.1547 90.3116 32.1101 90.3005 32.0469L89.6874 29.7394L90.4677 29.5239L91.1291 31.9577C91.1885 32.1807 91.3037 32.3628 91.4784 32.504C91.653 32.6452 91.8574 32.7158 92.0915 32.7158H92.281C92.3962 32.7158 92.4928 32.7566 92.5708 32.8384V32.8421Z" fill="#3A51A3"/>
<path d="M91.9576 33.4216C91.8758 33.3436 91.835 33.2432 91.835 33.1281C91.835 33.0129 91.8758 32.92 91.9576 32.842C92.0393 32.7639 92.1396 32.723 92.2548 32.723H95.7328C95.6585 32.6747 95.599 32.6116 95.5544 32.5373C95.5098 32.4592 95.4875 32.3738 95.4875 32.2772V32.0468C95.4875 31.5117 95.324 31.1178 95.0008 30.8689C94.7295 30.6571 94.3728 30.5493 93.9269 30.5493C93.5888 30.5493 93.2432 30.6088 92.8939 30.724L92.6078 29.9845C92.9943 29.821 93.4216 29.7393 93.8898 29.7393C94.5252 29.7393 95.0639 29.9028 95.4987 30.2261C95.7328 30.4007 95.9223 30.6348 96.0709 30.9246C96.2195 31.2182 96.2939 31.5749 96.2939 31.9985V32.2697C96.2939 32.4072 96.331 32.5187 96.4053 32.6004C96.4796 32.6822 96.5763 32.723 96.6989 32.723H97.3343V33.5442H92.2586C92.1434 33.5442 92.043 33.5034 91.9613 33.4253L91.9576 33.4216ZM93.8749 28.1935C93.9715 28.0969 94.0867 28.0449 94.2205 28.0449C94.3542 28.0449 94.4769 28.0932 94.5772 28.1935C94.6775 28.2902 94.7295 28.4054 94.7295 28.5391C94.7295 28.6729 94.6775 28.7955 94.5772 28.8921C94.4769 28.9887 94.358 29.0407 94.2205 29.0407C94.083 29.0407 93.9641 28.9924 93.8712 28.8921C93.7746 28.7955 93.7263 28.6766 93.7263 28.5391C93.7263 28.4016 93.7746 28.2902 93.8749 28.1935Z" fill="#3A51A3"/>
<path d="M99.9575 32.8346C100.035 32.9126 100.076 33.0092 100.076 33.1244C100.076 33.2396 100.035 33.3399 99.9537 33.418C99.872 33.496 99.7754 33.5369 99.6639 33.5369H99.4484C99.2515 33.5369 99.0657 33.496 98.891 33.4142C98.7164 33.3325 98.5678 33.221 98.4452 33.0761C98.33 33.221 98.1888 33.3325 98.0215 33.4142C97.8581 33.496 97.6797 33.5369 97.4865 33.5369H97.1929C97.0703 33.5369 96.97 33.496 96.8883 33.418C96.8065 33.3399 96.7656 33.2396 96.7656 33.1244C96.7656 33.0092 96.8065 32.9089 96.8883 32.8346C96.97 32.7566 97.074 32.7194 97.1929 32.7194H97.401C97.5608 32.7194 97.6983 32.66 97.8097 32.5448C97.9249 32.4296 97.9807 32.2884 97.9807 32.1212V27.9893H98.8093V32.1286C98.8241 32.2921 98.8947 32.4333 99.0174 32.5448C99.14 32.66 99.2812 32.7157 99.4484 32.7157H99.6713C99.7828 32.7157 99.8794 32.7528 99.9575 32.8309V32.8346Z" fill="#3A51A3"/>
<path d="M99.3445 33.4216C99.2665 33.3435 99.2256 33.2469 99.2256 33.1355C99.2256 33.024 99.2665 32.92 99.3445 32.8419C99.4225 32.7639 99.5229 32.723 99.638 32.723H100.084C100.195 32.723 100.292 32.6821 100.374 32.6041C100.456 32.5261 100.496 32.4258 100.496 32.3106V27.9966H101.318V32.3106C101.318 32.5335 101.262 32.7379 101.154 32.9274C101.046 33.1169 100.898 33.2655 100.708 33.377C100.519 33.4885 100.314 33.5442 100.091 33.5442H99.638C99.5229 33.5442 99.4225 33.5033 99.3445 33.4253V33.4216Z" fill="#3A51A3"/>
<path d="M162.76 3.62657V36.3735C162.76 38.3762 161.136 40 159.129 40C157.123 40 155.503 38.3762 155.503 36.3735V3.62657C155.503 2.62332 155.908 1.72039 156.562 1.0627C157.22 0.408732 158.126 0 159.129 0C161.136 0 162.76 1.62378 162.76 3.62657Z" fill="#3A51A3"/>
<path d="M154.808 36.3736C154.808 38.3764 153.184 40.0002 151.181 40.0002H146.585C144.582 40.0002 142.958 38.3764 142.958 36.3736V3.63048C142.958 2.62722 143.363 1.72058 144.017 1.06289C144.675 0.408923 145.581 0.00390625 146.581 0.00390625C148.584 0.00390625 150.207 1.62769 150.207 3.63419V32.7508H151.177C152.177 32.7508 153.083 33.1558 153.741 33.8098C154.395 34.4675 154.8 35.3704 154.8 36.3736H154.808Z" fill="#3A51A3"/>
<path d="M132.45 24.1932V36.3734C132.45 38.3762 130.827 40 128.824 40C126.821 40 125.197 38.3762 125.197 36.3734V24.1932C125.197 23.1936 125.602 22.287 126.256 21.6293C126.914 20.9753 127.817 20.5703 128.82 20.5703C130.823 20.5703 132.447 22.1941 132.447 24.1969L132.45 24.1932Z" fill="#3A51A3"/>
<path d="M123.655 24.1932V36.3734C123.655 38.3762 122.032 40 120.029 40C118.026 40 116.402 38.3762 116.402 36.3734V24.1932C116.402 23.1936 116.807 22.287 117.461 21.6293C118.119 20.9753 119.026 20.5703 120.025 20.5703C122.028 20.5703 123.652 22.1941 123.652 24.1969L123.655 24.1932Z" fill="#3A51A3"/>
<path d="M114.853 24.1932V36.3734C114.853 38.3762 113.229 40 111.226 40C109.223 40 107.6 38.3762 107.6 36.3734V24.1932C107.6 23.1936 108.005 22.287 108.659 21.6293C109.316 20.9753 110.223 20.5703 111.222 20.5703C113.225 20.5703 114.849 22.1941 114.849 24.1969L114.853 24.1932Z" fill="#3A51A3"/>
<path d="M141.208 3.63029V36.3735C141.208 38.131 139.956 39.5987 138.295 39.9294C138.065 39.974 137.827 40 137.582 40C135.579 40 133.955 38.3762 133.955 36.3735V3.63029C133.955 2.62703 134.36 1.72039 135.014 1.0627C135.675 0.408732 136.582 0 137.582 0C139.584 0 141.208 1.62378 141.208 3.63029Z" fill="#3A51A3"/>
<path d="M129.905 9.55306L122.202 17.3784C121.006 18.5935 119.048 18.5935 117.851 17.3784L110.149 9.55306C109.104 8.49407 108.978 6.83313 109.848 5.62923L111.891 2.79783C112.463 2.00266 113.385 1.53076 114.366 1.53076H125.688C126.665 1.53076 127.587 2.00266 128.162 2.79783L130.206 5.62923C131.076 6.83685 130.949 8.49407 129.905 9.55306Z" fill="#3A51A3"/>
</svg>
